<svg xmlns="http://www.w3.org/2000/svg" xmlns:xlink="http://www.w3.org/1999/xlink" width="1080" zoomAndPan="magnify" viewBox="0 0 810 809.999993" height="1080" preserveAspectRatio="xMidYMid meet" version="1.0"><defs><clipPath id="b2f5411d8f"><path d="M 8 13.5 L 790.292969 13.5 L 790.292969 796 L 8 796 Z M 8 13.5 " clip-rule="nonzero"/></clipPath></defs><g clip-path="url(#b2f5411d8f)"><path fill="#0d2f59" d="M 399.644531 13.207031 C 393.242188 13.207031 386.84375 13.363281 380.453125 13.675781 C 374.058594 13.992188 367.675781 14.460938 361.304688 15.089844 C 354.933594 15.714844 348.582031 16.5 342.25 17.4375 C 335.917969 18.378906 329.613281 19.472656 323.332031 20.722656 C 317.054688 21.96875 310.8125 23.371094 304.601562 24.925781 C 298.390625 26.484375 292.222656 28.191406 286.097656 30.046875 C 279.972656 31.90625 273.894531 33.914062 267.867188 36.070312 C 261.839844 38.226562 255.871094 40.53125 249.957031 42.980469 C 244.042969 45.429688 238.191406 48.023438 232.402344 50.761719 C 226.617188 53.496094 220.902344 56.375 215.253906 59.390625 C 209.609375 62.410156 204.042969 65.5625 198.550781 68.855469 C 193.058594 72.144531 187.652344 75.570312 182.332031 79.125 C 177.007812 82.683594 171.777344 86.367188 166.632812 90.179688 C 161.492188 93.996094 156.445312 97.933594 151.5 101.992188 C 146.550781 106.054688 141.703125 110.234375 136.960938 114.535156 C 132.21875 118.832031 127.582031 123.246094 123.054688 127.773438 C 118.53125 132.296875 114.117188 136.933594 109.816406 141.675781 C 105.519531 146.417969 101.339844 151.265625 97.277344 156.214844 C 93.214844 161.164062 89.277344 166.207031 85.464844 171.347656 C 81.652344 176.492188 77.96875 181.722656 74.410156 187.046875 C 70.855469 192.367188 67.429688 197.777344 64.140625 203.265625 C 60.847656 208.757812 57.695312 214.324219 54.675781 219.972656 C 51.660156 225.617188 48.78125 231.332031 46.042969 237.121094 C 43.308594 242.90625 40.714844 248.757812 38.265625 254.671875 C 35.816406 260.585938 33.511719 266.554688 31.355469 272.582031 C 29.199219 278.609375 27.191406 284.6875 25.332031 290.8125 C 23.472656 296.941406 21.765625 303.105469 20.210938 309.316406 C 18.65625 315.527344 17.253906 321.769531 16.003906 328.050781 C 14.757812 334.328125 13.664062 340.632812 12.722656 346.964844 C 11.785156 353.296875 11 359.648438 10.371094 366.019531 C 9.746094 372.390625 9.273438 378.773438 8.960938 385.167969 C 8.644531 391.5625 8.488281 397.957031 8.488281 404.359375 C 8.488281 410.761719 8.644531 417.160156 8.960938 423.554688 C 9.273438 429.945312 9.746094 436.328125 10.371094 442.699219 C 11 449.070312 11.785156 455.421875 12.722656 461.753906 C 13.664062 468.085938 14.757812 474.390625 16.003906 480.671875 C 17.253906 486.949219 18.65625 493.191406 20.210938 499.402344 C 21.765625 505.613281 23.472656 511.78125 25.332031 517.90625 C 27.191406 524.03125 29.199219 530.109375 31.355469 536.136719 C 33.511719 542.164062 35.8125 548.132812 38.265625 554.046875 C 40.714844 559.960938 43.308594 565.8125 46.042969 571.601562 C 48.78125 577.386719 51.660156 583.101562 54.675781 588.75 C 57.695312 594.394531 60.847656 599.960938 64.140625 605.453125 C 67.429688 610.945312 70.855469 616.351562 74.410156 621.671875 C 77.96875 626.996094 81.652344 632.230469 85.464844 637.371094 C 89.277344 642.511719 93.214844 647.558594 97.277344 652.503906 C 101.339844 657.453125 105.519531 662.300781 109.816406 667.042969 C 114.117188 671.785156 118.527344 676.421875 123.054688 680.949219 C 127.582031 685.472656 132.21875 689.886719 136.960938 694.1875 C 141.703125 698.484375 146.550781 702.664062 151.5 706.726562 C 156.445312 710.789062 161.492188 714.726562 166.632812 718.539062 C 171.773438 722.351562 177.007812 726.035156 182.328125 729.59375 C 187.652344 733.148438 193.058594 736.574219 198.550781 739.863281 C 204.042969 743.15625 209.609375 746.308594 215.253906 749.328125 C 220.902344 752.34375 226.617188 755.222656 232.402344 757.960938 C 238.191406 760.695312 244.042969 763.289062 249.957031 765.738281 C 255.871094 768.1875 261.839844 770.492188 267.867188 772.648438 C 273.894531 774.804688 279.972656 776.8125 286.097656 778.671875 C 292.222656 780.53125 298.390625 782.238281 304.601562 783.792969 C 310.8125 785.347656 317.054688 786.75 323.332031 788 C 329.613281 789.246094 335.917969 790.339844 342.25 791.28125 C 348.582031 792.21875 354.933594 793.003906 361.304688 793.632812 C 367.675781 794.257812 374.058594 794.730469 380.449219 795.042969 C 386.84375 795.359375 393.242188 795.515625 399.644531 795.515625 C 406.046875 795.515625 412.441406 795.359375 418.835938 795.042969 C 425.230469 794.730469 431.613281 794.257812 437.984375 793.632812 C 444.355469 793.003906 450.707031 792.21875 457.039062 791.28125 C 463.371094 790.339844 469.675781 789.246094 475.953125 788 C 482.234375 786.75 488.476562 785.347656 494.6875 783.792969 C 500.898438 782.238281 507.0625 780.53125 513.191406 778.671875 C 519.316406 776.8125 525.394531 774.804688 531.421875 772.648438 C 537.449219 770.492188 543.417969 768.191406 549.332031 765.738281 C 555.246094 763.289062 561.097656 760.695312 566.882812 757.960938 C 572.671875 755.222656 578.386719 752.34375 584.03125 749.328125 C 589.679688 746.308594 595.246094 743.15625 600.738281 739.863281 C 606.226562 736.574219 611.636719 733.148438 616.957031 729.59375 C 622.28125 726.035156 627.511719 722.351562 632.65625 718.539062 C 637.796875 714.726562 642.839844 710.789062 647.789062 706.726562 C 652.738281 702.664062 657.585938 698.484375 662.328125 694.1875 C 667.070312 689.886719 671.707031 685.472656 676.230469 680.949219 C 680.757812 676.421875 685.171875 671.785156 689.46875 667.042969 C 693.769531 662.300781 697.949219 657.453125 702.011719 652.507812 C 706.070312 647.558594 710.007812 642.511719 713.824219 637.371094 C 717.636719 632.230469 721.320312 626.996094 724.878906 621.675781 C 728.433594 616.351562 731.855469 610.945312 735.148438 605.453125 C 738.441406 599.964844 741.59375 594.394531 744.613281 588.75 C 747.628906 583.101562 750.507812 577.386719 753.242188 571.601562 C 755.980469 565.8125 758.574219 559.960938 761.023438 554.046875 C 763.472656 548.132812 765.777344 542.164062 767.933594 536.136719 C 770.089844 530.109375 772.097656 524.03125 773.957031 517.90625 C 775.8125 511.78125 777.519531 505.613281 779.078125 499.402344 C 780.632812 493.191406 782.035156 486.949219 783.28125 480.671875 C 784.53125 474.390625 785.625 468.085938 786.566406 461.753906 C 787.503906 455.421875 788.289062 449.070312 788.914062 442.699219 C 789.542969 436.328125 790.011719 429.945312 790.328125 423.554688 C 790.640625 417.160156 790.796875 410.761719 790.796875 404.359375 C 790.796875 397.957031 790.640625 391.5625 790.328125 385.167969 C 790.011719 378.773438 789.542969 372.390625 788.914062 366.019531 C 788.289062 359.648438 787.503906 353.296875 786.566406 346.964844 C 785.625 340.632812 784.53125 334.328125 783.28125 328.050781 C 782.035156 321.769531 780.632812 315.527344 779.074219 309.316406 C 777.519531 303.105469 775.8125 296.941406 773.957031 290.8125 C 772.097656 284.6875 770.089844 278.609375 767.933594 272.582031 C 765.777344 266.554688 763.472656 260.585938 761.023438 254.671875 C 758.574219 248.757812 755.980469 242.90625 753.242188 237.121094 C 750.507812 231.332031 747.628906 225.617188 744.613281 219.972656 C 741.59375 214.324219 738.4375 208.757812 735.148438 203.265625 C 731.855469 197.777344 728.433594 192.367188 724.878906 187.046875 C 721.320312 181.722656 717.636719 176.492188 713.820312 171.347656 C 710.007812 166.207031 706.070312 161.164062 702.011719 156.214844 C 697.949219 151.265625 693.769531 146.417969 689.46875 141.675781 C 685.171875 136.933594 680.757812 132.296875 676.230469 127.773438 C 671.707031 123.246094 667.070312 118.832031 662.328125 114.535156 C 657.585938 110.234375 652.738281 106.054688 647.789062 101.992188 C 642.839844 97.933594 637.796875 93.996094 632.65625 90.179688 C 627.511719 86.367188 622.28125 82.683594 616.957031 79.125 C 611.636719 75.570312 606.226562 72.144531 600.738281 68.855469 C 595.246094 65.5625 589.679688 62.410156 584.03125 59.390625 C 578.386719 56.375 572.671875 53.496094 566.882812 50.761719 C 561.097656 48.023438 555.246094 45.429688 549.332031 42.980469 C 543.417969 40.53125 537.449219 38.226562 531.421875 36.070312 C 525.394531 33.914062 519.316406 31.90625 513.191406 30.046875 C 507.066406 28.191406 500.898438 26.484375 494.6875 24.925781 C 488.476562 23.371094 482.234375 21.96875 475.953125 20.722656 C 469.675781 19.472656 463.371094 18.378906 457.039062 17.4375 C 450.707031 16.5 444.355469 15.714844 437.984375 15.089844 C 431.613281 14.460938 425.230469 13.992188 418.835938 13.675781 C 412.445312 13.363281 406.046875 13.207031 399.644531 13.207031 Z M 150.949219 206.257812 L 648.34375 206.257812 C 655.273438 206.289062 661.863281 207.800781 668.113281 210.796875 L 399.800781 397.542969 L 131.195312 210.789062 C 137.4375 207.800781 144.023438 206.289062 150.949219 206.257812 Z M 108.992188 575.949219 C 107.429688 572.800781 106.246094 569.519531 105.433594 566.101562 C 104.625 562.679688 104.210938 559.214844 104.1875 555.703125 L 104.1875 253.015625 C 104.210938 249.492188 104.628906 246.015625 105.445312 242.585938 C 106.261719 239.160156 107.453125 235.867188 109.019531 232.710938 C 111.515625 236.375 334.953125 389.753906 337.863281 392.453125 C 336.671875 393.820312 109.515625 574.324219 108.992188 575.949219 Z M 648.34375 602.460938 L 150.949219 602.460938 C 143.960938 602.425781 137.320312 600.886719 131.03125 597.839844 L 364.574219 411.023438 C 404.425781 438.714844 394.859375 439.09375 434.835938 411.121094 L 668.261719 597.84375 C 661.972656 600.886719 655.332031 602.425781 648.34375 602.460938 Z M 690.304688 575.949219 C 689.777344 574.324219 462.726562 393.902344 461.535156 392.539062 C 464.4375 389.839844 687.777344 236.355469 690.265625 232.703125 C 691.835938 235.859375 693.03125 239.152344 693.847656 242.582031 C 694.664062 246.011719 695.082031 249.488281 695.105469 253.015625 L 695.105469 555.703125 C 695.082031 559.214844 694.667969 562.679688 693.859375 566.097656 C 693.046875 569.519531 691.863281 572.800781 690.304688 575.949219 Z M 690.304688 575.949219 " fill-opacity="1" fill-rule="nonzero"/></g></svg>