<svg xmlns="http://www.w3.org/2000/svg" xmlns:xlink="http://www.w3.org/1999/xlink" width="1080" zoomAndPan="magnify" viewBox="0 0 810 809.999993" height="1080" preserveAspectRatio="xMidYMid meet" version="1.0"><defs><clipPath id="1a494f9166"><path d="M 24.398438 24.398438 L 785.648438 24.398438 L 785.648438 785.648438 L 24.398438 785.648438 Z M 24.398438 24.398438 " clip-rule="nonzero"/></clipPath></defs><g clip-path="url(#1a494f9166)"><path fill="#0d2f59" d="M 785.640625 669.964844 C 785.640625 733.847656 733.855469 785.628906 669.972656 785.628906 L 140.132812 785.628906 C 76.25 785.628906 24.46875 733.847656 24.46875 669.964844 L 24.46875 140.136719 C 24.46875 76.25 76.25 24.46875 140.132812 24.46875 L 669.972656 24.46875 C 733.855469 24.46875 785.640625 76.25 785.640625 140.136719 Z M 785.640625 669.964844 " fill-opacity="1" fill-rule="nonzero"/></g><path fill="#ffffff" d="M 245.765625 193.195312 L 574.816406 193.195312 C 606.078125 193.195312 631.636719 218.757812 631.636719 250.023438 L 631.636719 579.078125 C 631.636719 610.332031 606.078125 635.875 574.816406 635.875 L 245.765625 635.875 C 214.503906 635.875 188.921875 610.332031 188.921875 579.078125 L 188.921875 250.023438 C 188.921875 218.757812 214.503906 193.195312 245.765625 193.195312 Z M 511.429688 242.359375 C 500.457031 242.359375 491.5 251.359375 491.5 262.324219 L 491.5 310 C 491.5 320.984375 500.457031 329.941406 511.429688 329.941406 L 561.464844 329.941406 C 572.421875 329.941406 581.394531 320.980469 581.394531 310 L 581.394531 262.324219 C 581.394531 251.359375 572.421875 242.359375 561.464844 242.359375 Z M 581.589844 380.398438 L 542.628906 380.398438 C 546.328125 392.46875 548.328125 405.175781 548.328125 418.410156 C 548.328125 492.027344 486.695312 551.730469 410.699219 551.730469 C 334.710938 551.730469 273.074219 492.027344 273.074219 418.410156 C 273.074219 405.175781 275.097656 392.46875 278.777344 380.398438 L 238.132812 380.398438 L 238.132812 567.421875 C 238.132812 577.105469 246.042969 584.976562 255.71875 584.976562 L 564.003906 584.976562 C 573.691406 584.976562 581.589844 577.105469 581.589844 567.421875 Z M 410.699219 327.4375 C 361.613281 327.4375 321.800781 365.984375 321.800781 413.59375 C 321.800781 461.152344 361.613281 499.742188 410.699219 499.742188 C 459.800781 499.742188 499.621094 461.152344 499.621094 413.59375 C 499.621094 365.984375 459.800781 327.4375 410.699219 327.4375 Z M 410.699219 327.4375 " fill-opacity="1" fill-rule="nonzero"/></svg>