<svg xmlns="http://www.w3.org/2000/svg" xmlns:xlink="http://www.w3.org/1999/xlink" width="1080" zoomAndPan="magnify" viewBox="0 0 810 809.999993" height="1080" preserveAspectRatio="xMidYMid meet" version="1.0"><defs><clipPath id="54ba944ff8"><path d="M 8.050781 8.050781 L 802 8.050781 L 802 802 L 8.050781 802 Z M 8.050781 8.050781 " clip-rule="nonzero"/></clipPath></defs><g clip-path="url(#54ba944ff8)"><path fill="#0d2f59" d="M 127.136719 8.050781 L 682.863281 8.050781 C 684.8125 8.050781 686.761719 8.097656 688.707031 8.195312 C 690.652344 8.289062 692.597656 8.433594 694.535156 8.625 C 696.476562 8.816406 698.410156 9.054688 700.335938 9.339844 C 702.265625 9.625 704.183594 9.957031 706.097656 10.339844 C 708.007812 10.71875 709.910156 11.144531 711.800781 11.621094 C 713.691406 12.09375 715.566406 12.613281 717.433594 13.179688 C 719.296875 13.742188 721.148438 14.355469 722.984375 15.011719 C 724.816406 15.667969 726.636719 16.371094 728.4375 17.117188 C 730.238281 17.859375 732.015625 18.652344 733.78125 19.484375 C 735.542969 20.316406 737.28125 21.191406 739 22.113281 C 740.71875 23.03125 742.414062 23.992188 744.085938 24.992188 C 745.757812 25.996094 747.402344 27.039062 749.023438 28.121094 C 750.644531 29.203125 752.238281 30.324219 753.800781 31.484375 C 755.367188 32.644531 756.902344 33.84375 758.410156 35.082031 C 759.917969 36.316406 761.390625 37.589844 762.835938 38.898438 C 764.28125 40.207031 765.691406 41.550781 767.070312 42.929688 C 768.449219 44.308594 769.792969 45.71875 771.101562 47.164062 C 772.410156 48.605469 773.679688 50.082031 774.917969 51.589844 C 776.152344 53.09375 777.351562 54.632812 778.515625 56.195312 C 779.675781 57.761719 780.796875 59.355469 781.878906 60.976562 C 782.960938 62.597656 784.003906 64.242188 785.007812 65.914062 C 786.007812 67.585938 786.96875 69.28125 787.886719 71 C 788.804688 72.71875 789.683594 74.457031 790.515625 76.21875 C 791.347656 77.980469 792.136719 79.761719 792.882812 81.5625 C 793.628906 83.363281 794.332031 85.183594 794.988281 87.015625 C 795.644531 88.851562 796.253906 90.703125 796.820312 92.566406 C 797.386719 94.433594 797.90625 96.308594 798.378906 98.199219 C 798.851562 100.089844 799.28125 101.992188 799.660156 103.902344 C 800.039062 105.8125 800.375 107.734375 800.660156 109.660156 C 800.945312 111.589844 801.183594 113.523438 801.375 115.464844 C 801.566406 117.402344 801.710938 119.34375 801.804688 121.292969 C 801.902344 123.238281 801.949219 125.1875 801.949219 127.136719 L 801.949219 682.863281 C 801.949219 684.8125 801.902344 686.761719 801.804688 688.707031 C 801.710938 690.652344 801.566406 692.597656 801.375 694.535156 C 801.183594 696.476562 800.945312 698.410156 800.660156 700.335938 C 800.375 702.265625 800.039062 704.183594 799.660156 706.097656 C 799.28125 708.007812 798.851562 709.910156 798.378906 711.800781 C 797.90625 713.691406 797.386719 715.566406 796.820312 717.433594 C 796.253906 719.296875 795.644531 721.148438 794.988281 722.984375 C 794.332031 724.816406 793.628906 726.636719 792.882812 728.4375 C 792.136719 730.238281 791.347656 732.015625 790.515625 733.78125 C 789.683594 735.542969 788.804688 737.28125 787.886719 739 C 786.96875 740.71875 786.007812 742.414062 785.007812 744.085938 C 784.003906 745.757812 782.960938 747.402344 781.878906 749.023438 C 780.796875 750.644531 779.675781 752.238281 778.515625 753.804688 C 777.351562 755.367188 776.152344 756.902344 774.917969 758.410156 C 773.679688 759.917969 772.410156 761.390625 771.101562 762.835938 C 769.792969 764.28125 768.449219 765.691406 767.070312 767.070312 C 765.691406 768.449219 764.28125 769.792969 762.835938 771.101562 C 761.390625 772.410156 759.917969 773.679688 758.410156 774.917969 C 756.902344 776.152344 755.367188 777.351562 753.800781 778.515625 C 752.238281 779.675781 750.644531 780.796875 749.023438 781.878906 C 747.402344 782.960938 745.757812 784.003906 744.085938 785.007812 C 742.414062 786.007812 740.71875 786.96875 739 787.886719 C 737.28125 788.804688 735.542969 789.683594 733.78125 790.515625 C 732.015625 791.347656 730.238281 792.136719 728.4375 792.882812 C 726.636719 793.628906 724.816406 794.332031 722.984375 794.988281 C 721.148438 795.644531 719.296875 796.253906 717.433594 796.820312 C 715.566406 797.386719 713.691406 797.90625 711.800781 798.378906 C 709.910156 798.851562 708.007812 799.28125 706.097656 799.660156 C 704.183594 800.039062 702.265625 800.375 700.335938 800.660156 C 698.410156 800.945312 696.476562 801.183594 694.535156 801.375 C 692.597656 801.566406 690.652344 801.710938 688.707031 801.804688 C 686.761719 801.902344 684.8125 801.949219 682.863281 801.949219 L 127.136719 801.949219 C 125.1875 801.949219 123.238281 801.902344 121.292969 801.804688 C 119.34375 801.710938 117.402344 801.566406 115.460938 801.375 C 113.523438 801.183594 111.589844 800.945312 109.660156 800.660156 C 107.734375 800.375 105.8125 800.039062 103.902344 799.660156 C 101.992188 799.28125 100.089844 798.851562 98.199219 798.378906 C 96.308594 797.90625 94.433594 797.386719 92.566406 796.820312 C 90.703125 796.253906 88.851562 795.644531 87.015625 794.988281 C 85.183594 794.332031 83.363281 793.628906 81.5625 792.882812 C 79.761719 792.136719 77.980469 791.347656 76.21875 790.515625 C 74.457031 789.683594 72.71875 788.804688 71 787.886719 C 69.28125 786.96875 67.585938 786.007812 65.914062 785.007812 C 64.242188 784.003906 62.597656 782.960938 60.976562 781.878906 C 59.355469 780.796875 57.761719 779.675781 56.195312 778.515625 C 54.632812 777.351562 53.09375 776.152344 51.589844 774.917969 C 50.082031 773.679688 48.605469 772.410156 47.164062 771.101562 C 45.71875 769.792969 44.308594 768.449219 42.929688 767.070312 C 41.550781 765.691406 40.207031 764.28125 38.898438 762.835938 C 37.589844 761.390625 36.316406 759.917969 35.082031 758.410156 C 33.84375 756.902344 32.644531 755.367188 31.484375 753.800781 C 30.324219 752.238281 29.203125 750.644531 28.121094 749.023438 C 27.035156 747.402344 25.996094 745.757812 24.992188 744.085938 C 23.992188 742.414062 23.03125 740.71875 22.113281 739 C 21.191406 737.28125 20.316406 735.542969 19.484375 733.78125 C 18.652344 732.015625 17.859375 730.238281 17.117188 728.4375 C 16.371094 726.636719 15.667969 724.816406 15.011719 722.984375 C 14.355469 721.148438 13.742188 719.296875 13.179688 717.433594 C 12.613281 715.566406 12.09375 713.691406 11.621094 711.800781 C 11.144531 709.910156 10.71875 708.007812 10.339844 706.097656 C 9.957031 704.183594 9.625 702.265625 9.339844 700.335938 C 9.054688 698.410156 8.816406 696.476562 8.625 694.535156 C 8.433594 692.597656 8.289062 690.652344 8.195312 688.707031 C 8.097656 686.761719 8.050781 684.8125 8.050781 682.863281 L 8.050781 127.136719 C 8.050781 125.1875 8.097656 123.238281 8.195312 121.292969 C 8.289062 119.34375 8.433594 117.402344 8.625 115.464844 C 8.816406 113.523438 9.054688 111.589844 9.339844 109.660156 C 9.625 107.734375 9.957031 105.8125 10.339844 103.902344 C 10.71875 101.992188 11.144531 100.089844 11.621094 98.199219 C 12.09375 96.308594 12.613281 94.433594 13.179688 92.566406 C 13.742188 90.703125 14.355469 88.851562 15.011719 87.015625 C 15.667969 85.183594 16.371094 83.363281 17.117188 81.5625 C 17.859375 79.761719 18.652344 77.980469 19.484375 76.21875 C 20.316406 74.457031 21.191406 72.71875 22.113281 71 C 23.03125 69.28125 23.992188 67.585938 24.992188 65.914062 C 25.996094 64.242188 27.035156 62.597656 28.121094 60.976562 C 29.203125 59.355469 30.324219 57.761719 31.484375 56.195312 C 32.644531 54.632812 33.84375 53.09375 35.082031 51.589844 C 36.316406 50.082031 37.589844 48.605469 38.898438 47.164062 C 40.207031 45.71875 41.550781 44.308594 42.929688 42.929688 C 44.308594 41.550781 45.71875 40.207031 47.164062 38.898438 C 48.605469 37.589844 50.082031 36.316406 51.589844 35.082031 C 53.09375 33.84375 54.632812 32.644531 56.195312 31.484375 C 57.761719 30.324219 59.355469 29.203125 60.976562 28.121094 C 62.597656 27.039062 64.242188 25.996094 65.914062 24.992188 C 67.585938 23.992188 69.28125 23.03125 71 22.113281 C 72.71875 21.191406 74.457031 20.316406 76.21875 19.484375 C 77.980469 18.652344 79.761719 17.859375 81.5625 17.117188 C 83.363281 16.371094 85.183594 15.667969 87.015625 15.011719 C 88.851562 14.355469 90.703125 13.742188 92.566406 13.179688 C 94.433594 12.613281 96.308594 12.09375 98.199219 11.621094 C 100.089844 11.144531 101.992188 10.71875 103.902344 10.339844 C 105.8125 9.957031 107.734375 9.625 109.660156 9.339844 C 111.589844 9.054688 113.523438 8.816406 115.460938 8.625 C 117.402344 8.433594 119.34375 8.289062 121.292969 8.195312 C 123.238281 8.097656 125.1875 8.050781 127.136719 8.050781 Z M 127.136719 8.050781 " fill-opacity="1" fill-rule="nonzero"/></g><path fill="#ffffff" d="M 285.605469 222.03125 C 285.605469 223.910156 285.511719 225.785156 285.328125 227.65625 C 285.144531 229.523438 284.867188 231.378906 284.503906 233.222656 C 284.136719 235.066406 283.679688 236.886719 283.132812 238.683594 C 282.589844 240.484375 281.957031 242.25 281.238281 243.984375 C 280.519531 245.722656 279.714844 247.417969 278.832031 249.074219 C 277.945312 250.734375 276.980469 252.34375 275.9375 253.90625 C 274.890625 255.46875 273.773438 256.972656 272.582031 258.425781 C 271.390625 259.878906 270.128906 261.269531 268.800781 262.597656 C 267.472656 263.925781 266.082031 265.1875 264.628906 266.378906 C 263.175781 267.570312 261.667969 268.691406 260.105469 269.734375 C 258.542969 270.777344 256.933594 271.742188 255.277344 272.628906 C 253.621094 273.515625 251.925781 274.316406 250.1875 275.035156 C 248.453125 275.753906 246.683594 276.386719 244.886719 276.933594 C 243.089844 277.476562 241.269531 277.933594 239.425781 278.300781 C 237.582031 278.667969 235.726562 278.941406 233.855469 279.125 C 231.988281 279.308594 230.113281 279.402344 228.234375 279.402344 C 226.355469 279.402344 224.480469 279.308594 222.609375 279.125 C 220.738281 278.941406 218.882812 278.667969 217.039062 278.300781 C 215.199219 277.933594 213.378906 277.476562 211.578125 276.933594 C 209.78125 276.386719 208.015625 275.753906 206.277344 275.035156 C 204.542969 274.316406 202.84375 273.515625 201.1875 272.628906 C 199.53125 271.742188 197.921875 270.777344 196.359375 269.734375 C 194.796875 268.691406 193.289062 267.570312 191.835938 266.378906 C 190.382812 265.1875 188.992188 263.925781 187.664062 262.597656 C 186.335938 261.269531 185.078125 259.878906 183.882812 258.425781 C 182.691406 256.972656 181.574219 255.46875 180.53125 253.90625 C 179.488281 252.34375 178.523438 250.734375 177.636719 249.074219 C 176.75 247.417969 175.949219 245.722656 175.230469 243.984375 C 174.507812 242.25 173.878906 240.484375 173.332031 238.683594 C 172.785156 236.886719 172.332031 235.066406 171.964844 233.222656 C 171.597656 231.378906 171.320312 229.523438 171.136719 227.65625 C 170.953125 225.785156 170.863281 223.910156 170.863281 222.03125 C 170.863281 220.152344 170.953125 218.277344 171.136719 216.40625 C 171.320312 214.539062 171.597656 212.679688 171.964844 210.839844 C 172.332031 208.996094 172.785156 207.175781 173.332031 205.375 C 173.878906 203.578125 174.507812 201.8125 175.230469 200.074219 C 175.949219 198.339844 176.75 196.644531 177.636719 194.984375 C 178.523438 193.328125 179.488281 191.71875 180.53125 190.15625 C 181.574219 188.59375 182.691406 187.085938 183.882812 185.632812 C 185.078125 184.183594 186.335938 182.792969 187.664062 181.464844 C 188.992188 180.132812 190.382812 178.875 191.835938 177.683594 C 193.289062 176.488281 194.796875 175.371094 196.359375 174.328125 C 197.921875 173.285156 199.53125 172.320312 201.1875 171.433594 C 202.84375 170.546875 204.542969 169.746094 206.277344 169.027344 C 208.015625 168.308594 209.78125 167.675781 211.578125 167.128906 C 213.378906 166.585938 215.199219 166.128906 217.039062 165.761719 C 218.882812 165.394531 220.738281 165.121094 222.609375 164.9375 C 224.480469 164.75 226.355469 164.660156 228.234375 164.660156 C 230.113281 164.660156 231.988281 164.75 233.855469 164.9375 C 235.726562 165.121094 237.582031 165.394531 239.425781 165.761719 C 241.269531 166.128906 243.089844 166.585938 244.886719 167.128906 C 246.683594 167.675781 248.453125 168.308594 250.1875 169.027344 C 251.925781 169.746094 253.621094 170.546875 255.277344 171.433594 C 256.933594 172.320312 258.542969 173.285156 260.105469 174.328125 C 261.667969 175.371094 263.175781 176.488281 264.628906 177.683594 C 266.082031 178.875 267.472656 180.132812 268.800781 181.464844 C 270.128906 182.792969 271.390625 184.183594 272.582031 185.632812 C 273.773438 187.085938 274.890625 188.59375 275.9375 190.15625 C 276.980469 191.71875 277.945312 193.328125 278.832031 194.984375 C 279.714844 196.644531 280.519531 198.339844 281.238281 200.074219 C 281.957031 201.8125 282.589844 203.578125 283.132812 205.375 C 283.679688 207.175781 284.136719 208.996094 284.503906 210.839844 C 284.867188 212.679688 285.144531 214.539062 285.328125 216.40625 C 285.511719 218.277344 285.605469 220.152344 285.605469 222.03125 Z M 285.605469 222.03125 " fill-opacity="1" fill-rule="nonzero"/><path stroke-linecap="butt" transform="matrix(1.550583, 0, 0, 1.550583, 8.050462, 8.050479)" fill-opacity="1" fill="#ffffff" fill-rule="nonzero" stroke-linejoin="miter" d="M 244.001203 193.999832 L 244.001203 391.99998 M 142.000745 193.999832 L 142.000745 391.99998 " stroke="#ffffff" stroke-width="66" stroke-opacity="1" stroke-miterlimit="4"/><path fill="#ffffff" d="M 436.011719 445.316406 C 436.011719 414.304688 456.167969 383.292969 491.832031 383.292969 C 529.046875 383.292969 543 411.203125 543 453.066406 L 543 615.878906 L 645.339844 615.878906 L 645.339844 440.664062 C 645.339844 346.078125 595.722656 302.660156 527.496094 302.660156 C 474.777344 302.660156 448.414062 332.121094 436.011719 352.28125 " fill-opacity="1" fill-rule="nonzero"/></svg>