<svg xmlns="http://www.w3.org/2000/svg" xmlns:xlink="http://www.w3.org/1999/xlink" width="1080" zoomAndPan="magnify" viewBox="0 0 810 809.999993" height="1080" preserveAspectRatio="xMidYMid meet" version="1.0"><defs><clipPath id="71088a3b51"><path d="M 21.375 21.375 L 788.625 21.375 L 788.625 788.625 L 21.375 788.625 Z M 21.375 21.375 " clip-rule="nonzero"/></clipPath></defs><g clip-path="url(#71088a3b51)"><path fill="#0d2f59" d="M 788.609375 405.125 C 788.609375 616.855469 616.960938 788.503906 405.230469 788.503906 C 391.289062 788.523438 377.386719 787.78125 363.523438 786.277344 C 349.664062 784.773438 335.925781 782.519531 322.308594 779.511719 C 308.695312 776.503906 295.285156 772.761719 282.082031 768.285156 C 268.875 763.808594 255.953125 758.625 243.316406 752.734375 C 235.710938 749.179688 227.875 746.246094 219.808594 743.929688 C 211.738281 741.613281 203.539062 739.949219 195.207031 738.929688 C 186.875 737.910156 178.515625 737.550781 170.125 737.855469 C 161.738281 738.15625 153.425781 739.117188 145.1875 740.734375 L 85.335938 752.519531 C 59.976562 757.511719 40.222656 730.777344 52.4375 708.003906 C 76.105469 663.886719 77.992188 611.152344 57 565.703125 C 51.242188 553.226562 46.171875 540.472656 41.789062 527.449219 C 37.410156 514.421875 33.738281 501.199219 30.785156 487.777344 C 27.832031 474.355469 25.609375 460.816406 24.113281 447.152344 C 22.621094 433.492188 21.867188 419.789062 21.855469 406.046875 C 21.355469 194.125 192.738281 22.058594 404.664062 21.75 C 616.65625 21.441406 788.609375 193.207031 788.609375 405.125 Z M 788.609375 405.125 " fill-opacity="1" fill-rule="nonzero"/></g><path fill="#ffffff" d="M 733.402344 405.125 C 733.402344 410.496094 733.273438 415.863281 733.007812 421.230469 C 732.746094 426.59375 732.347656 431.949219 731.824219 437.292969 C 731.296875 442.636719 730.640625 447.964844 729.851562 453.277344 C 729.0625 458.589844 728.144531 463.882812 727.097656 469.148438 C 726.050781 474.417969 724.875 479.65625 723.570312 484.867188 C 722.261719 490.074219 720.832031 495.25 719.273438 500.390625 C 717.714844 505.527344 716.027344 510.628906 714.21875 515.683594 C 712.410156 520.742188 710.476562 525.75 708.421875 530.710938 C 706.367188 535.675781 704.191406 540.582031 701.894531 545.4375 C 699.597656 550.292969 697.183594 555.089844 694.652344 559.824219 C 692.121094 564.5625 689.476562 569.234375 686.714844 573.839844 C 683.953125 578.445312 681.082031 582.984375 678.097656 587.449219 C 675.113281 591.914062 672.019531 596.304688 668.820312 600.617188 C 665.621094 604.933594 662.320312 609.164062 658.910156 613.316406 C 655.503906 617.46875 651.996094 621.535156 648.390625 625.511719 C 644.785156 629.492188 641.082031 633.382812 637.285156 637.179688 C 633.484375 640.976562 629.597656 644.679688 625.617188 648.285156 C 621.636719 651.890625 617.574219 655.398438 613.421875 658.808594 C 609.269531 662.214844 605.035156 665.515625 600.722656 668.714844 C 596.410156 671.914062 592.019531 675.007812 587.554688 677.992188 C 583.089844 680.976562 578.550781 683.847656 573.945312 686.609375 C 569.339844 689.371094 564.667969 692.015625 559.929688 694.546875 C 555.195312 697.078125 550.398438 699.492188 545.542969 701.789062 C 540.6875 704.085938 535.777344 706.261719 530.816406 708.316406 C 525.855469 710.371094 520.847656 712.304688 515.789062 714.113281 C 510.730469 715.925781 505.632812 717.609375 500.496094 719.167969 C 495.355469 720.726562 490.179688 722.160156 484.96875 723.464844 C 479.761719 724.769531 474.523438 725.945312 469.253906 726.992188 C 463.988281 728.039062 458.695312 728.957031 453.382812 729.746094 C 448.070312 730.535156 442.742188 731.191406 437.398438 731.71875 C 432.054688 732.246094 426.699219 732.640625 421.332031 732.902344 C 415.96875 733.167969 410.601562 733.296875 405.230469 733.296875 C 399.859375 733.296875 394.492188 733.167969 389.128906 732.902344 C 383.765625 732.640625 378.410156 732.246094 373.066406 731.71875 C 367.71875 731.191406 362.390625 730.535156 357.078125 729.746094 C 351.765625 728.957031 346.476562 728.039062 341.207031 726.992188 C 335.941406 725.945312 330.703125 724.769531 325.492188 723.464844 C 320.28125 722.160156 315.105469 720.726562 309.96875 719.167969 C 304.828125 717.609375 299.730469 715.925781 294.671875 714.113281 C 289.617188 712.304688 284.605469 710.371094 279.644531 708.316406 C 274.683594 706.261719 269.773438 704.085938 264.917969 701.789062 C 260.0625 699.492188 255.269531 697.078125 250.53125 694.546875 C 245.796875 692.015625 241.125 689.371094 236.515625 686.609375 C 231.910156 683.847656 227.375 680.976562 222.910156 677.992188 C 218.441406 675.007812 214.054688 671.914062 209.738281 668.714844 C 205.425781 665.515625 201.191406 662.214844 197.039062 658.808594 C 192.890625 655.398438 188.824219 651.890625 184.84375 648.285156 C 180.863281 644.679688 176.976562 640.976562 173.179688 637.179688 C 169.378906 633.382812 165.679688 629.492188 162.070312 625.511719 C 158.464844 621.535156 154.957031 617.46875 151.550781 613.316406 C 148.144531 609.164062 144.839844 604.933594 141.640625 600.617188 C 138.441406 596.304688 135.351562 591.914062 132.367188 587.449219 C 129.382812 582.984375 126.507812 578.445312 123.75 573.839844 C 120.988281 569.234375 118.339844 564.5625 115.808594 559.824219 C 113.277344 555.089844 110.863281 550.292969 108.566406 545.4375 C 106.269531 540.582031 104.09375 535.675781 102.039062 530.710938 C 99.984375 525.75 98.050781 520.742188 96.242188 515.683594 C 94.433594 510.628906 92.75 505.527344 91.191406 500.390625 C 89.628906 495.25 88.199219 490.074219 86.894531 484.867188 C 85.589844 479.65625 84.414062 474.417969 83.363281 469.148438 C 82.316406 463.882812 81.398438 458.589844 80.609375 453.277344 C 79.824219 447.964844 79.164062 442.636719 78.640625 437.292969 C 78.113281 431.949219 77.71875 426.59375 77.453125 421.230469 C 77.191406 415.863281 77.058594 410.496094 77.058594 405.125 C 77.058594 399.753906 77.191406 394.386719 77.453125 389.023438 C 77.71875 383.660156 78.113281 378.304688 78.640625 372.960938 C 79.164062 367.613281 79.824219 362.285156 80.609375 356.972656 C 81.398438 351.660156 82.316406 346.371094 83.363281 341.101562 C 84.414062 335.835938 85.589844 330.597656 86.894531 325.386719 C 88.199219 320.175781 89.628906 315.003906 91.191406 309.863281 C 92.75 304.722656 94.433594 299.625 96.242188 294.566406 C 98.050781 289.511719 99.984375 284.5 102.039062 279.539062 C 104.09375 274.578125 106.269531 269.667969 108.566406 264.8125 C 110.863281 259.960938 113.277344 255.164062 115.808594 250.425781 C 118.339844 245.691406 120.988281 241.019531 123.75 236.410156 C 126.507812 231.804688 129.382812 227.269531 132.367188 222.804688 C 135.351562 218.335938 138.441406 213.949219 141.640625 209.632812 C 144.839844 205.320312 148.144531 201.085938 151.550781 196.9375 C 154.957031 192.785156 158.464844 188.71875 162.070312 184.738281 C 165.679688 180.757812 169.378906 176.871094 173.179688 173.074219 C 176.976562 169.277344 180.863281 165.574219 184.84375 161.964844 C 188.824219 158.359375 192.890625 154.851562 197.039062 151.445312 C 201.191406 148.039062 205.425781 144.734375 209.738281 141.535156 C 214.054688 138.335938 218.441406 135.246094 222.910156 132.261719 C 227.375 129.277344 231.910156 126.40625 236.515625 123.644531 C 241.125 120.882812 245.796875 118.234375 250.53125 115.703125 C 255.269531 113.171875 260.0625 110.757812 264.917969 108.460938 C 269.773438 106.164062 274.683594 103.988281 279.644531 101.933594 C 284.605469 99.878906 289.617188 97.945312 294.671875 96.136719 C 299.730469 94.328125 304.828125 92.644531 309.96875 91.085938 C 315.105469 89.527344 320.28125 88.09375 325.492188 86.789062 C 330.703125 85.484375 335.941406 84.308594 341.207031 83.257812 C 346.476562 82.210938 351.765625 81.292969 357.078125 80.503906 C 362.390625 79.71875 367.71875 79.058594 373.066406 78.535156 C 378.410156 78.007812 383.765625 77.613281 389.128906 77.347656 C 394.492188 77.085938 399.859375 76.953125 405.230469 76.953125 C 410.601562 76.953125 415.96875 77.085938 421.332031 77.347656 C 426.699219 77.613281 432.054688 78.007812 437.398438 78.535156 C 442.742188 79.058594 448.070312 79.71875 453.382812 80.503906 C 458.695312 81.292969 463.988281 82.210938 469.253906 83.257812 C 474.523438 84.308594 479.761719 85.484375 484.96875 86.789062 C 490.179688 88.09375 495.355469 89.527344 500.496094 91.085938 C 505.632812 92.644531 510.730469 94.328125 515.789062 96.136719 C 520.847656 97.945312 525.855469 99.878906 530.816406 101.933594 C 535.777344 103.988281 540.6875 106.164062 545.542969 108.460938 C 550.398438 110.757812 555.195312 113.171875 559.929688 115.703125 C 564.667969 118.234375 569.339844 120.882812 573.945312 123.644531 C 578.550781 126.40625 583.089844 129.277344 587.554688 132.261719 C 592.019531 135.246094 596.410156 138.335938 600.722656 141.535156 C 605.035156 144.734375 609.269531 148.039062 613.421875 151.445312 C 617.574219 154.851562 621.640625 158.359375 625.617188 161.964844 C 629.597656 165.574219 633.484375 169.277344 637.285156 173.074219 C 641.082031 176.871094 644.785156 180.757812 648.390625 184.738281 C 651.996094 188.71875 655.503906 192.785156 658.910156 196.9375 C 662.320312 201.085938 665.621094 205.320312 668.820312 209.632812 C 672.019531 213.949219 675.113281 218.335938 678.097656 222.804688 C 681.082031 227.269531 683.953125 231.804688 686.714844 236.410156 C 689.476562 241.019531 692.121094 245.691406 694.652344 250.425781 C 697.183594 255.164062 699.597656 259.960938 701.894531 264.8125 C 704.191406 269.667969 706.367188 274.578125 708.421875 279.539062 C 710.476562 284.5 712.410156 289.511719 714.21875 294.566406 C 716.027344 299.625 717.714844 304.722656 719.273438 309.863281 C 720.832031 315.003906 722.261719 320.175781 723.570312 325.386719 C 724.875 330.597656 726.050781 335.835938 727.097656 341.101562 C 728.144531 346.371094 729.0625 351.660156 729.851562 356.972656 C 730.640625 362.285156 731.296875 367.613281 731.824219 372.960938 C 732.351562 378.304688 732.746094 383.660156 733.007812 389.023438 C 733.273438 394.386719 733.402344 399.753906 733.402344 405.125 Z M 733.402344 405.125 " fill-opacity="1" fill-rule="nonzero"/><path fill="#0d2f59" d="M 674.800781 405.125 C 674.800781 409.539062 674.691406 413.945312 674.476562 418.351562 C 674.261719 422.757812 673.9375 427.15625 673.503906 431.546875 C 673.070312 435.9375 672.53125 440.316406 671.882812 444.679688 C 671.234375 449.042969 670.480469 453.390625 669.621094 457.714844 C 668.761719 462.042969 667.792969 466.347656 666.722656 470.625 C 665.652344 474.90625 664.472656 479.15625 663.195312 483.378906 C 661.914062 487.601562 660.53125 491.789062 659.042969 495.941406 C 657.558594 500.09375 655.96875 504.210938 654.28125 508.285156 C 652.59375 512.363281 650.804688 516.394531 648.917969 520.382812 C 647.035156 524.371094 645.050781 528.308594 642.972656 532.199219 C 640.890625 536.089844 638.71875 539.929688 636.449219 543.710938 C 634.179688 547.496094 631.820312 551.222656 629.371094 554.890625 C 626.917969 558.558594 624.378906 562.164062 621.75 565.707031 C 619.125 569.253906 616.410156 572.730469 613.613281 576.140625 C 610.8125 579.550781 607.933594 582.890625 604.96875 586.160156 C 602.007812 589.425781 598.964844 592.621094 595.847656 595.742188 C 592.726562 598.859375 589.53125 601.902344 586.261719 604.863281 C 582.996094 607.828125 579.65625 610.707031 576.246094 613.507812 C 572.835938 616.304688 569.355469 619.019531 565.8125 621.648438 C 562.269531 624.273438 558.664062 626.8125 554.996094 629.265625 C 551.328125 631.714844 547.601562 634.074219 543.816406 636.34375 C 540.035156 638.613281 536.195312 640.785156 532.304688 642.867188 C 528.414062 644.945312 524.476562 646.929688 520.488281 648.816406 C 516.5 650.699219 512.46875 652.488281 508.390625 654.175781 C 504.316406 655.863281 500.199219 657.453125 496.046875 658.9375 C 491.894531 660.425781 487.703125 661.808594 483.484375 663.089844 C 479.261719 664.371094 475.011719 665.546875 470.730469 666.617188 C 466.453125 667.691406 462.148438 668.65625 457.820312 669.515625 C 453.496094 670.378906 449.148438 671.132812 444.785156 671.777344 C 440.421875 672.425781 436.042969 672.964844 431.652344 673.398438 C 427.261719 673.832031 422.863281 674.15625 418.457031 674.371094 C 414.050781 674.589844 409.644531 674.695312 405.230469 674.695312 C 400.820312 674.695312 396.410156 674.589844 392.003906 674.371094 C 387.597656 674.15625 383.199219 673.832031 378.808594 673.398438 C 374.417969 672.964844 370.039062 672.425781 365.675781 671.777344 C 361.3125 671.132812 356.96875 670.378906 352.640625 669.515625 C 348.3125 668.65625 344.011719 667.691406 339.730469 666.617188 C 335.453125 665.546875 331.199219 664.371094 326.980469 663.089844 C 322.757812 661.808594 318.570312 660.425781 314.414062 658.9375 C 310.261719 657.453125 306.148438 655.863281 302.070312 654.175781 C 297.996094 652.488281 293.964844 650.699219 289.976562 648.816406 C 285.988281 646.929688 282.046875 644.945312 278.15625 642.867188 C 274.265625 640.785156 270.429688 638.613281 266.644531 636.34375 C 262.859375 634.074219 259.132812 631.714844 255.464844 629.265625 C 251.796875 626.8125 248.191406 624.273438 244.648438 621.648438 C 241.105469 619.019531 237.628906 616.304688 234.21875 613.507812 C 230.808594 610.707031 227.46875 607.828125 224.199219 604.863281 C 220.929688 601.902344 217.734375 598.859375 214.617188 595.742188 C 211.496094 592.621094 208.457031 589.425781 205.492188 586.160156 C 202.53125 582.890625 199.648438 579.550781 196.851562 576.140625 C 194.050781 572.730469 191.339844 569.253906 188.710938 565.707031 C 186.082031 562.164062 183.542969 558.558594 181.09375 554.890625 C 178.640625 551.222656 176.28125 547.496094 174.011719 543.710938 C 171.746094 539.929688 169.570312 536.089844 167.492188 532.199219 C 165.410156 528.308594 163.429688 524.371094 161.542969 520.382812 C 159.65625 516.394531 157.871094 512.363281 156.179688 508.285156 C 154.492188 504.210938 152.90625 500.09375 151.417969 495.941406 C 149.933594 491.789062 148.550781 487.601562 147.269531 483.378906 C 145.988281 479.15625 144.8125 474.90625 143.738281 470.625 C 142.667969 466.347656 141.703125 462.042969 140.839844 457.714844 C 139.980469 453.390625 139.226562 449.042969 138.578125 444.679688 C 137.929688 440.316406 137.390625 435.9375 136.960938 431.546875 C 136.527344 427.15625 136.203125 422.757812 135.984375 418.351562 C 135.769531 413.945312 135.660156 409.539062 135.660156 405.125 C 135.660156 400.714844 135.769531 396.304688 135.984375 391.898438 C 136.203125 387.492188 136.527344 383.09375 136.960938 378.703125 C 137.390625 374.3125 137.929688 369.9375 138.578125 365.570312 C 139.226562 361.207031 139.980469 356.863281 140.839844 352.535156 C 141.703125 348.207031 142.667969 343.90625 143.738281 339.625 C 144.8125 335.347656 145.988281 331.097656 147.269531 326.875 C 148.550781 322.652344 149.933594 318.464844 151.417969 314.3125 C 152.90625 310.15625 154.492188 306.042969 156.179688 301.964844 C 157.871094 297.890625 159.65625 293.859375 161.542969 289.871094 C 163.429688 285.882812 165.410156 281.941406 167.492188 278.050781 C 169.570312 274.160156 171.746094 270.324219 174.011719 266.539062 C 176.28125 262.753906 178.640625 259.027344 181.09375 255.359375 C 183.542969 251.691406 186.082031 248.085938 188.710938 244.542969 C 191.339844 241 194.050781 237.523438 196.851562 234.113281 C 199.648438 230.703125 202.53125 227.363281 205.492188 224.09375 C 208.457031 220.824219 211.496094 217.628906 214.617188 214.511719 C 217.734375 211.390625 220.929688 208.351562 224.199219 205.386719 C 227.46875 202.425781 230.808594 199.542969 234.21875 196.746094 C 237.628906 193.945312 241.105469 191.234375 244.648438 188.605469 C 248.191406 185.976562 251.796875 183.4375 255.464844 180.988281 C 259.132812 178.535156 262.859375 176.175781 266.644531 173.90625 C 270.429688 171.640625 274.265625 169.464844 278.15625 167.386719 C 282.046875 165.308594 285.988281 163.324219 289.976562 161.4375 C 293.964844 159.550781 297.996094 157.765625 302.070312 156.074219 C 306.148438 154.386719 310.261719 152.800781 314.414062 151.3125 C 318.570312 149.828125 322.757812 148.445312 326.980469 147.164062 C 331.199219 145.882812 335.453125 144.707031 339.730469 143.632812 C 344.011719 142.5625 348.3125 141.597656 352.640625 140.734375 C 356.96875 139.875 361.3125 139.121094 365.675781 138.472656 C 370.039062 137.828125 374.417969 137.285156 378.808594 136.855469 C 383.199219 136.421875 387.597656 136.097656 392.003906 135.878906 C 396.410156 135.664062 400.820312 135.554688 405.230469 135.554688 C 409.644531 135.554688 414.050781 135.664062 418.457031 135.878906 C 422.863281 136.097656 427.261719 136.421875 431.652344 136.855469 C 436.042969 137.285156 440.421875 137.828125 444.785156 138.472656 C 449.148438 139.121094 453.496094 139.875 457.820312 140.734375 C 462.148438 141.597656 466.453125 142.5625 470.730469 143.632812 C 475.011719 144.707031 479.261719 145.882812 483.484375 147.164062 C 487.703125 148.445312 491.894531 149.828125 496.046875 151.3125 C 500.199219 152.800781 504.316406 154.386719 508.390625 156.074219 C 512.46875 157.765625 516.5 159.550781 520.488281 161.4375 C 524.476562 163.324219 528.414062 165.308594 532.304688 167.386719 C 536.195312 169.464844 540.035156 171.640625 543.816406 173.90625 C 547.601562 176.175781 551.328125 178.535156 554.996094 180.988281 C 558.664062 183.4375 562.269531 185.976562 565.8125 188.605469 C 569.355469 191.234375 572.835938 193.945312 576.246094 196.746094 C 579.65625 199.542969 582.996094 202.425781 586.261719 205.386719 C 589.53125 208.351562 592.726562 211.390625 595.847656 214.511719 C 598.964844 217.628906 602.007812 220.824219 604.96875 224.09375 C 607.933594 227.363281 610.8125 230.703125 613.613281 234.113281 C 616.410156 237.523438 619.125 241 621.75 244.542969 C 624.378906 248.085938 626.917969 251.691406 629.371094 255.359375 C 631.820312 259.027344 634.179688 262.753906 636.449219 266.539062 C 638.71875 270.324219 640.890625 274.160156 642.972656 278.050781 C 645.050781 281.941406 647.035156 285.882812 648.917969 289.871094 C 650.804688 293.859375 652.59375 297.890625 654.28125 301.964844 C 655.96875 306.042969 657.558594 310.15625 659.042969 314.3125 C 660.53125 318.464844 661.914062 322.652344 663.195312 326.875 C 664.472656 331.097656 665.652344 335.347656 666.722656 339.625 C 667.792969 343.90625 668.761719 348.207031 669.621094 352.535156 C 670.480469 356.863281 671.234375 361.207031 671.882812 365.570312 C 672.53125 369.9375 673.070312 374.3125 673.503906 378.703125 C 673.9375 383.09375 674.261719 387.492188 674.476562 391.898438 C 674.691406 396.304688 674.800781 400.714844 674.800781 405.125 Z M 674.800781 405.125 " fill-opacity="1" fill-rule="nonzero"/><path fill="#ffffff" d="M 365.726562 344.621094 L 352.105469 303.933594 C 351.71875 302.773438 351.269531 301.640625 350.761719 300.527344 C 350.253906 299.417969 349.691406 298.335938 349.070312 297.28125 C 348.449219 296.230469 347.773438 295.214844 347.046875 294.234375 C 346.316406 293.253906 345.539062 292.3125 344.710938 291.414062 C 343.882812 290.515625 343.011719 289.664062 342.09375 288.855469 C 341.175781 288.046875 340.21875 287.292969 339.222656 286.585938 C 338.226562 285.878906 337.195312 285.226562 336.128906 284.628906 C 335.066406 284.03125 333.96875 283.492188 332.847656 283.007812 C 331.726562 282.527344 330.582031 282.105469 329.414062 281.742188 C 328.246094 281.382812 327.066406 281.082031 325.867188 280.84375 C 324.667969 280.609375 323.460938 280.433594 322.242188 280.324219 C 321.027344 280.214844 319.808594 280.167969 318.585938 280.1875 C 317.363281 280.203125 316.148438 280.289062 314.933594 280.433594 C 313.722656 280.582031 312.519531 280.789062 311.328125 281.0625 C 310.136719 281.335938 308.964844 281.671875 307.808594 282.070312 C 306.652344 282.464844 305.523438 282.921875 304.414062 283.4375 L 282.441406 293.675781 C 281.554688 294.089844 280.6875 294.539062 279.839844 295.027344 C 278.992188 295.515625 278.164062 296.035156 277.359375 296.59375 C 276.554688 297.148438 275.773438 297.738281 275.019531 298.359375 C 274.261719 298.984375 273.535156 299.636719 272.835938 300.320312 C 272.136719 301.003906 271.464844 301.714844 270.824219 302.457031 C 270.183594 303.195312 269.578125 303.964844 269.003906 304.753906 C 268.425781 305.546875 267.886719 306.359375 267.378906 307.199219 C 266.871094 308.035156 266.402344 308.890625 265.96875 309.769531 C 265.53125 310.644531 265.136719 311.539062 264.777344 312.449219 C 264.417969 313.359375 264.097656 314.285156 263.816406 315.21875 C 263.535156 316.15625 263.292969 317.105469 263.089844 318.0625 C 262.890625 319.019531 262.730469 319.984375 262.609375 320.957031 C 262.488281 321.925781 262.410156 322.902344 262.371094 323.878906 C 262.335938 324.859375 262.335938 325.835938 262.382812 326.8125 C 262.425781 327.789062 262.511719 328.765625 262.640625 329.734375 C 262.765625 330.707031 262.933594 331.667969 263.140625 332.625 C 276.890625 396.222656 327.441406 548.507812 498.121094 567.496094 C 499.804688 567.683594 501.496094 567.746094 503.1875 567.6875 C 504.882812 567.628906 506.5625 567.445312 508.230469 567.140625 C 509.898438 566.835938 511.535156 566.414062 513.140625 565.871094 C 514.746094 565.324219 516.304688 564.667969 517.8125 563.898438 C 519.324219 563.125 520.769531 562.25 522.148438 561.265625 C 523.53125 560.285156 524.835938 559.207031 526.058594 558.035156 C 527.28125 556.863281 528.414062 555.609375 529.457031 554.269531 C 530.496094 552.929688 531.433594 551.523438 532.269531 550.050781 L 543.597656 530.03125 C 544.160156 529.039062 544.671875 528.023438 545.132812 526.980469 C 545.59375 525.941406 546.003906 524.878906 546.359375 523.796875 C 546.71875 522.714844 547.019531 521.617188 547.269531 520.503906 C 547.519531 519.390625 547.714844 518.269531 547.851562 517.140625 C 547.992188 516.007812 548.074219 514.875 548.101562 513.734375 C 548.128906 512.59375 548.101562 511.457031 548.019531 510.320312 C 547.933594 509.183594 547.792969 508.054688 547.597656 506.933594 C 547.402344 505.808594 547.152344 504.699219 546.847656 503.601562 C 546.546875 502.503906 546.1875 501.421875 545.777344 500.359375 C 545.367188 499.296875 544.90625 498.253906 544.390625 497.238281 C 543.878906 496.21875 543.316406 495.230469 542.707031 494.265625 C 542.097656 493.304688 541.441406 492.375 540.742188 491.476562 C 540.039062 490.578125 539.296875 489.714844 538.511719 488.890625 C 537.722656 488.066406 536.898438 487.28125 536.035156 486.539062 C 535.171875 485.792969 534.277344 485.09375 533.34375 484.4375 C 532.410156 483.78125 531.449219 483.171875 530.457031 482.613281 L 530.222656 482.480469 L 499.800781 465.570312 C 498.167969 464.664062 496.46875 463.890625 494.707031 463.253906 C 492.945312 462.621094 491.148438 462.128906 489.308594 461.785156 C 487.46875 461.441406 485.613281 461.246094 483.742188 461.199219 C 481.871094 461.15625 480.007812 461.257812 478.152344 461.515625 C 476.296875 461.769531 474.476562 462.171875 472.6875 462.722656 C 470.898438 463.269531 469.164062 463.960938 467.488281 464.789062 C 465.808594 465.617188 464.207031 466.578125 462.683594 467.664062 C 461.160156 468.75 459.734375 469.953125 458.40625 471.269531 C 457.085938 472.582031 455.667969 473.78125 454.15625 474.863281 C 452.644531 475.945312 451.054688 476.902344 449.390625 477.730469 C 447.726562 478.558594 446.003906 479.25 444.226562 479.800781 C 442.449219 480.355469 440.640625 480.761719 438.800781 481.019531 C 436.957031 481.28125 435.105469 481.394531 433.246094 481.359375 C 431.386719 481.324219 429.539062 481.136719 427.710938 480.804688 C 425.878906 480.472656 424.089844 479.996094 422.335938 479.375 C 420.582031 478.753906 418.886719 477.996094 417.253906 477.105469 C 398.761719 466.941406 373.40625 449.613281 355.636719 424.007812 C 354.640625 422.582031 353.757812 421.085938 352.984375 419.527344 C 352.210938 417.96875 351.5625 416.359375 351.03125 414.703125 C 350.5 413.046875 350.09375 411.359375 349.8125 409.644531 C 349.535156 407.925781 349.386719 406.199219 349.363281 404.457031 C 349.34375 402.71875 349.453125 400.988281 349.691406 399.265625 C 349.929688 397.539062 350.292969 395.84375 350.785156 394.175781 C 351.277344 392.507812 351.890625 390.882812 352.625 389.308594 C 353.359375 387.730469 354.207031 386.214844 355.167969 384.765625 L 361.707031 374.933594 C 363.175781 372.726562 364.375 370.382812 365.308594 367.902344 C 366.238281 365.421875 366.878906 362.871094 367.226562 360.242188 C 367.574219 357.617188 367.625 354.984375 367.371094 352.347656 C 367.117188 349.707031 366.570312 347.132812 365.730469 344.621094 Z M 365.726562 344.621094 " fill-opacity="1" fill-rule="nonzero"/></svg>